<svg width="48" height="48" viewBox="0 0 48 48" fill="none" xmlns="http://www.w3.org/2000/svg">
<circle cx="24" cy="24" r="24" fill="#344966"/>
<path d="M14.25 34.2917L14.4571 32.96C14.6657 31.6192 15.5391 30.4721 16.8331 30.0632C18.5569 29.5185 21.1884 28.875 24 28.875C26.8116 28.875 29.4431 29.5185 31.1669 30.0632C32.4609 30.4721 33.3343 31.6192 33.5429 32.96L33.75 34.2917" stroke="#F0F4EF" stroke-width="2" stroke-linecap="round" stroke-linejoin="round"/>
<path d="M23.9997 24.0001C26.9912 24.0001 29.4163 21.575 29.4163 18.5834C29.4163 15.5919 26.9912 13.1667 23.9997 13.1667C21.0081 13.1667 18.583 15.5919 18.583 18.5834C18.583 21.575 21.0081 24.0001 23.9997 24.0001Z" stroke="#F0F4EF" stroke-width="2" stroke-linecap="round" stroke-linejoin="round"/>
</svg>
